<svg width="50" height="50" viewBox="0 0 50 50" fill="none" xmlns="http://www.w3.org/2000/svg">
<rect width="50" height="50" rx="10" fill="white"/>
<g clip-path="url(#clip0_220_11)">
<path d="M35.0551 24.4998C35.1069 30.0543 39.9464 31.9027 40 31.9263C39.9591 32.0566 39.2267 34.5604 37.4503 37.1466C35.9147 39.3826 34.3209 41.6103 31.8102 41.6565C29.3432 41.7017 28.5499 40.1991 25.7295 40.1991C22.9098 40.1991 22.0285 41.6103 19.6932 41.7017C17.2697 41.7931 15.4243 39.2839 13.8759 37.0561C10.7119 32.4992 8.29403 24.1794 11.5407 18.5633C13.1536 15.7744 16.0359 14.0083 19.1644 13.963C21.5441 13.9178 23.7903 15.5579 25.2451 15.5579C26.699 15.5579 29.4286 13.5855 32.2982 13.8752C33.4995 13.925 36.8715 14.3586 39.0368 17.516C38.8623 17.6237 35.0132 19.856 35.0551 24.4998V24.4998ZM30.4186 10.8604C31.7053 9.30886 32.5712 7.14903 32.335 5C30.4804 5.07425 28.2378 6.23115 26.9076 7.7818C25.7154 9.15498 24.6714 11.3528 24.9531 13.4593C27.0202 13.6186 29.132 12.4129 30.4186 10.8604" fill="black"/>
</g>
<defs>
<clipPath id="clip0_220_11">
<rect width="30" height="36.7742" fill="white" transform="translate(10 5)"/>
</clipPath>
</defs>
</svg>
