<svg width="50" height="50" viewBox="0 0 50 50" fill="none" xmlns="http://www.w3.org/2000/svg">
<rect width="50" height="50" rx="10" fill="white"/>
<path d="M39.7083 22.0623H38.5V22H25V28H33.4773C32.2405 31.4928 28.9173 34 25 34C20.0298 34 16 29.9702 16 25C16 20.0298 20.0298 16 25 16C27.2943 16 29.3815 16.8655 30.9708 18.2792L35.2135 14.0365C32.5345 11.5397 28.951 10 25 10C16.7162 10 10 16.7162 10 25C10 33.2838 16.7162 40 25 40C33.2838 40 40 33.2838 40 25C40 23.9943 39.8965 23.0125 39.7083 22.0623Z" fill="#FFC107"/>
<path d="M11.7295 18.0182L16.6577 21.6325C17.9912 18.331 21.2207 16 25 16C27.2942 16 29.3815 16.8655 30.9707 18.2792L35.2135 14.0365C32.5345 11.5397 28.951 10 25 10C19.2385 10 14.242 13.2527 11.7295 18.0182Z" fill="#FF3D00"/>
<path d="M25 40C28.8745 40 32.395 38.5173 35.0567 36.106L30.4142 32.1775C28.9082 33.3183 27.0362 34 25 34C21.0985 34 17.7857 31.5123 16.5377 28.0405L11.6462 31.8093C14.1287 36.667 19.1702 40 25 40Z" fill="#4CAF50"/>
<path d="M39.7083 22.0623H38.5V22H25V28H33.4773C32.8833 29.6777 31.804 31.1245 30.412 32.1782C30.4127 32.1775 30.4135 32.1775 30.4142 32.1768L35.0568 36.1052C34.7283 36.4037 40 32.5 40 25C40 23.9943 39.8965 23.0125 39.7083 22.0623Z" fill="#1976D2"/>
</svg>
